<?xml version="1.0" encoding="UTF-8" standalone="no"?>
<svg
   xmlns:dc="http://purl.org/dc/elements/1.1/"
   xmlns:cc="http://creativecommons.org/ns#"
   xmlns:rdf="http://www.w3.org/1999/02/22-rdf-syntax-ns#"
   xmlns:svg="http://www.w3.org/2000/svg"
   xmlns="http://www.w3.org/2000/svg"
   xmlns:sodipodi="http://sodipodi.sourceforge.net/DTD/sodipodi-0.dtd"
   xmlns:inkscape="http://www.inkscape.org/namespaces/inkscape"
   version="1.1"
   viewBox="0.0 0.0 348.0 348.0"
   fill="none"
   stroke="none"
   stroke-linecap="square"
   stroke-miterlimit="10"
   id="svg91"
   sodipodi:docname="img.svg"
   inkscape:version="0.92.1 r15371">
  <metadata
     id="metadata97">
    <rdf:RDF>
      <cc:Work
         rdf:about="">
        <dc:format>image/svg+xml</dc:format>
        <dc:type
           rdf:resource="http://purl.org/dc/dcmitype/StillImage" />
        <dc:title />
      </cc:Work>
    </rdf:RDF>
  </metadata>
  <defs
     id="defs95" />
  <sodipodi:namedview
     pagecolor="#ffffff"
     bordercolor="#666666"
     borderopacity="1"
     objecttolerance="10"
     gridtolerance="10"
     guidetolerance="10"
     inkscape:pageopacity="0"
     inkscape:pageshadow="2"
     inkscape:window-width="1920"
     inkscape:window-height="1017"
     id="namedview93"
     showgrid="false"
     inkscape:zoom="2.7126437"
     inkscape:cx="112.62076"
     inkscape:cy="174"
     inkscape:window-x="-8"
     inkscape:window-y="-8"
     inkscape:window-maximized="1"
     inkscape:current-layer="svg91"
     inkscape:snap-text-baseline="false" />
  <clipPath
     id="p.0">
    <path
       d="m0 0l348.0 0l0 348.0l-348.0 0l0 -348.0z"
       clip-rule="nonzero"
       id="path2" />
  </clipPath>
  <g
     clip-path="url(#p.0)"
     id="g89">
    <path
       d="m0 0l348.0 0l0 348.0l-348.0 0z"
       id="path5"
       fill-rule="nonzero"
       fill-opacity="0.0"
       fill="#000000" />
    <path
       d="m-6.0 0l354.01575 0l0 347.9685l-354.01575 0z"
       id="path7"
       fill-rule="nonzero"
       fill="#ffffff" />
    <path
       d="m5.07874 5.7758217l336.9134 0l0 337.6693l-336.9134 0z"
       id="path9"
       fill-rule="nonzero"
       fill-opacity="0.0"
       fill="#000000" />
    <path
       d="m5.07874 5.7758217l336.9134 0l0 337.6693l-336.9134 0z"
       id="path11"
       stroke-linejoin="round"
       stroke-linecap="butt"
       stroke-width="2.0"
       stroke="#000000"
       fill-rule="nonzero" />
    <path
       d="m133.84251 15.666667l74.33072 0l0 56.881886l-74.33072 0z"
       id="path13"
       fill-rule="nonzero"
       fill="#000000" />
    <path
       d="m154.53912 44.089794q0 -4.0625 0.828125 -6.53125q0.84375 -2.484375 2.484375 -3.828125q1.65625 -1.34375 4.15625 -1.34375q1.84375 0 3.234375 0.75q1.390625 0.734375 2.296875 2.140625q0.90625 1.390625 1.421875 3.40625q0.515625 2.0 0.515625 5.40625q0 4.03125 -0.828125 6.515625q-0.828125 2.46875 -2.484375 3.828125q-1.640625 1.34375 -4.15625 1.34375q-3.3125 0 -5.203125 -2.375q-2.265625 -2.859375 -2.265625 -9.3125zm2.890625 0q0 5.640625 1.3125 7.515625q1.328125 1.859375 3.265625 1.859375q1.9375 0 3.25 -1.875q1.328125 -1.875 1.328125 -7.5q0 -5.65625 -1.328125 -7.515625q-1.3125 -1.859375 -3.28125 -1.859375q-1.9375 0 -3.09375 1.640625q-1.453125 2.09375 -1.453125 7.734375zm14.90625 0q0 -4.0625 0.828125 -6.53125q0.84375 -2.484375 2.484375 -3.828125q1.65625 -1.34375 4.15625 -1.34375q1.84375 0 3.234375 0.75q1.390625 0.734375 2.296875 2.140625q0.90625 1.390625 1.421875 3.40625q0.515625 2.0 0.515625 5.40625q0 4.03125 -0.828125 6.515625q-0.828125 2.46875 -2.484375 3.828125q-1.640625 1.34375 -4.15625 1.34375q-3.3125 0 -5.203125 -2.375q-2.265625 -2.859375 -2.265625 -9.3125zm2.890625 0q0 5.640625 1.3125 7.515625q1.328125 1.859375 3.265625 1.859375q1.9375 0 3.25 -1.875q1.328125 -1.875 1.328125 -7.5q0 -5.65625 -1.328125 -7.515625q-1.3125 -1.859375 -3.28125 -1.859375q-1.9375 0 -3.09375 1.640625q-1.453125 2.09375 -1.453125 7.734375z"
       id="path15"
       fill-rule="nonzero"
       fill="#ffffff" />
    <path
       d="m15.262467 17.706038l109.88976 0l0 54.83464l-109.88976 0z"
       id="path17"
       fill-rule="nonzero"
       fill="#ffffff" />
    <path
       d="m15.262467 17.706038l109.88976 0l0 54.83464l-109.88976 0z"
       id="path19"
       stroke-linejoin="round"
       stroke-linecap="butt"
       stroke-width="2.0"
       stroke="#000000"
       fill-rule="nonzero" />
    <path
       d="m15.262467 72.65354l39.68504 -54.07874"
       id="path21"
       fill-rule="nonzero"
       fill-opacity="0.0"
       fill="#000000" />
    <path
       d="m15.262467 72.65354l39.68504 -54.07874"
       id="path23"
       stroke-linejoin="round"
       stroke-linecap="butt"
       stroke-width="2.0"
       stroke="#000000"
       fill-rule="nonzero" />
    <path
       d="m37.56649 72.65354l39.685043 -54.07874"
       id="path25"
       fill-rule="nonzero"
       fill-opacity="0.0"
       fill="#000000" />
    <path
       d="m37.56649 72.65354l39.685043 -54.07874"
       id="path27"
       stroke-linejoin="round"
       stroke-linecap="butt"
       stroke-width="2.0"
       stroke="#000000"
       fill-rule="nonzero" />
    <path
       d="m59.870514 72.65354l39.685043 -54.07874"
       id="path29"
       fill-rule="nonzero"
       fill-opacity="0.0"
       fill="#000000" />
    <path
       d="m59.870514 72.65354l39.685043 -54.07874"
       id="path31"
       stroke-linejoin="round"
       stroke-linecap="butt"
       stroke-width="2.0"
       stroke="#000000"
       fill-rule="nonzero" />
    <path
       d="m82.17454 72.65354l39.685043 -54.07874"
       id="path33"
       fill-rule="nonzero"
       fill-opacity="0.0"
       fill="#000000" />
    <path
       d="m82.17454 72.65354l39.685043 -54.07874"
       id="path35"
       stroke-linejoin="round"
       stroke-linecap="butt"
       stroke-width="2.0"
       stroke="#000000"
       fill-rule="nonzero" />
    <path
       d="m216.86351 16.633858l109.889755 0l0 54.83465l-109.889755 0z"
       id="path41"
       fill-rule="nonzero"
       fill="#ffffff" />
    <path
       d="m216.86351 16.633858l109.889755 0l0 54.83465l-109.889755 0z"
       id="path43"
       stroke-linejoin="round"
       stroke-linecap="butt"
       stroke-width="2.0"
       stroke="#000000"
       fill-rule="nonzero" />
    <path
       d="m216.86351 71.58137l39.685043 -54.078743"
       id="path45"
       fill-rule="nonzero"
       fill-opacity="0.0"
       fill="#000000" />
    <path
       d="m216.86351 71.58137l39.685043 -54.078743"
       id="path47"
       stroke-linejoin="round"
       stroke-linecap="butt"
       stroke-width="2.0"
       stroke="#000000"
       fill-rule="nonzero" />
    <path
       d="m239.16754 71.58137l39.685028 -54.078743"
       id="path49"
       fill-rule="nonzero"
       fill-opacity="0.0"
       fill="#000000" />
    <path
       d="m239.16754 71.58137l39.685028 -54.078743"
       id="path51"
       stroke-linejoin="round"
       stroke-linecap="butt"
       stroke-width="2.0"
       stroke="#000000"
       fill-rule="nonzero" />
    <path
       d="m261.47156 71.58137l39.68506 -54.078743"
       id="path53"
       fill-rule="nonzero"
       fill-opacity="0.0"
       fill="#000000" />
    <path
       d="m261.47156 71.58137l39.68506 -54.078743"
       id="path55"
       stroke-linejoin="round"
       stroke-linecap="butt"
       stroke-width="2.0"
       stroke="#000000"
       fill-rule="nonzero" />
    <path
       d="m283.7756 71.58137l39.685028 -54.078743"
       id="path57"
       fill-rule="nonzero"
       fill-opacity="0.0"
       fill="#000000" />
    <path
       d="m283.7756 71.58137l39.685028 -54.078743"
       id="path59"
       stroke-linejoin="round"
       stroke-linecap="butt"
       stroke-width="2.0"
       stroke="#000000"
       fill-rule="nonzero" />
    <path
       d="m113.77165 267.51697l49.259842 0l0 45.480316l-49.259842 0z"
       id="path65"
       fill-rule="nonzero"
       fill-opacity="0.0"
       fill="#000000" />
    <path
       d="m182.79527 267.51697l49.259842 0l0 45.480316l-49.259842 0z"
       id="path71"
       fill-rule="nonzero"
       fill-opacity="0.0"
       fill="#000000" />
    <path
       d="m260.08136 270.74014l36.724426 0l0 25.637817l-36.724426 0z"
       id="path77"
       fill-rule="nonzero"
       fill="#ffffff" />
    <path
       d="m265.46457 305.50656l0 0c0 -2.3569946 1.9107056 -4.2677307 4.2677 -4.2677307l0 0c1.131897 0 2.2174072 0.449646 3.0177307 1.25c0.800354 0.800354 1.25 1.8858643 1.25 3.0177307l0 0c0 2.3569946 -1.9107361 4.2677307 -4.2677307 4.2677307l0 0c-2.3569946 0 -4.2677 -1.9107361 -4.2677 -4.2677307z"
       id="path81"
       fill-rule="nonzero"
       fill="#ffffff" />
    <path
       d="m282.8084 305.50656l0 0c0 -2.3569946 1.9107056 -4.2677307 4.2677 -4.2677307l0 0c1.1318665 0 2.2173767 0.449646 3.0177307 1.25c0.800354 0.800354 1.25 1.8858643 1.25 3.0177307l0 0c0 2.3569946 -1.9107361 4.2677307 -4.2677307 4.2677307l0 0c-2.3569946 0 -4.2677 -1.9107361 -4.2677 -4.2677307z"
       id="path85"
       fill-rule="nonzero"
       fill="#ffffff" />
  </g>
  <ellipse
     style="fill:#000000;stroke-width:1.17696869"
     id="path141"
     cx="104.06937"
     cy="205.33473"
     rx="70.299278"
     ry="71.148308" />
  <ellipse
     style="fill:#ffffff"
     id="path145"
     cx="252.33687"
     cy="226.53178"
     rx="50.68856"
     ry="51.794491" />
  <ellipse
     style="fill:#ffffff;stroke-width:1.29674244"
     id="path151"
     cx="104.63351"
     cy="205.34769"
     rx="64.082634"
     ry="63.742302" />
  <flowRoot
     xml:space="preserve"
     id="flowRoot153"
     style="fill:black;fill-opacity:1;stroke:none;font-family:sans-serif;font-style:normal;font-weight:normal;font-size:40px;line-height:1.25;letter-spacing:0px;word-spacing:0px"><flowRegion
       id="flowRegion155"><rect
         id="rect157"
         width="114.27966"
         height="71.88559"
         x="56.402542"
         y="187.63983" /></flowRegion><flowPara
       id="flowPara159" /></flowRoot>  <flowRoot
     xml:space="preserve"
     id="flowRoot173"
     style="fill:black;fill-opacity:1;stroke:none;font-family:Arial;font-style:normal;font-weight:normal;font-size:40px;line-height:1.25;letter-spacing:0px;word-spacing:0px;-inkscape-font-specification:'Arial, Normal';font-stretch:normal;font-variant:normal;text-anchor:start;text-align:start;writing-mode:lr;font-variant-ligatures:normal;font-variant-caps:normal;font-variant-numeric:normal;font-feature-settings:normal;"><flowRegion
       id="flowRegion175"
       style="-inkscape-font-specification:'Arial, Normal';font-family:Arial;font-weight:normal;font-style:normal;font-stretch:normal;font-variant:normal;font-size:40px;text-anchor:start;text-align:start;writing-mode:lr;font-variant-ligatures:normal;font-variant-caps:normal;font-variant-numeric:normal;font-feature-settings:normal;"><rect
         id="rect177"
         width="102.85169"
         height="56.033897"
         x="50.504238"
         y="181.00424"
         style="-inkscape-font-specification:'Arial, Normal';font-family:Arial;font-weight:normal;font-style:normal;font-stretch:normal;font-variant:normal;font-size:40px;text-anchor:start;text-align:start;writing-mode:lr;font-variant-ligatures:normal;font-variant-caps:normal;font-variant-numeric:normal;font-feature-settings:normal;" /></flowRegion><flowPara
       id="flowPara183">PUSH</flowPara></flowRoot>  <flowRoot
     xml:space="preserve"
     id="flowRoot185"
     style="fill:black;fill-opacity:1;stroke:none;font-family:sans-serif;font-style:normal;font-weight:normal;font-size:40px;line-height:1.25;letter-spacing:0px;word-spacing:0px"><flowRegion
       id="flowRegion187"><rect
         id="rect189"
         width="105.06356"
         height="70.411018"
         x="43.131355"
         y="171.05084" /></flowRegion><flowPara
       id="flowPara191" /></flowRoot>  <flowRoot
     xml:space="preserve"
     id="flowRoot193"
     style="fill:#000000;fill-opacity:1;stroke:none;font-family:sans-serif;font-style:normal;font-weight:normal;font-size:40px;line-height:1.25;letter-spacing:0px;word-spacing:0px;"><flowRegion
       id="flowRegion195"
       style="fill:#000000;"><rect
         id="rect197"
         width="96.953392"
         height="58.983051"
         x="57.877117"
         y="184.69067"
         style="fill:#000000;" /></flowRegion><flowPara
       id="flowPara199" /></flowRoot>  <rect
     style="fill:#000000;stroke-width:0.95121956"
     id="rect209"
     width="100.63982"
     height="100.63982"
     x="209.02118"
     y="153.35593" />
  <flowRoot
     xml:space="preserve"
     id="flowRoot211"
     style="font-style:normal;font-weight:normal;font-size:40px;line-height:1.25;font-family:sans-serif;letter-spacing:0px;word-spacing:0px;fill:#ffffff;fill-opacity:1;stroke:none"><flowRegion
       id="flowRegion213"
       style="fill:#ffffff"><rect
         id="rect215"
         width="70.042366"
         height="58.245762"
         x="227.08475"
         y="187.63983"
         style="fill:#ffffff" /></flowRegion><flowPara
       id="flowPara217">_ _</flowPara></flowRoot>  <flowRoot
     xml:space="preserve"
     id="flowRoot72"
     style="font-style:normal;font-variant:normal;font-weight:normal;font-stretch:normal;font-size:40px;line-height:1.25;font-family:Arial;-inkscape-font-specification:'Arial, Normal';font-variant-ligatures:normal;font-variant-caps:normal;font-variant-numeric:normal;font-feature-settings:normal;text-align:start;letter-spacing:0px;word-spacing:0px;writing-mode:lr-tb;text-anchor:start;fill:#000000;fill-opacity:1;stroke:none"
     transform="translate(3.6864407,-89.949152)"><flowRegion
       id="flowRegion74"
       style="font-style:normal;font-variant:normal;font-weight:normal;font-stretch:normal;font-size:40px;font-family:Arial;-inkscape-font-specification:'Arial, Normal';font-variant-ligatures:normal;font-variant-caps:normal;font-variant-numeric:normal;font-feature-settings:normal;text-align:start;writing-mode:lr-tb;text-anchor:start"><rect
         id="rect76"
         width="114.64831"
         height="54.559322"
         x="45.34322"
         y="183.58475"
         style="font-style:normal;font-variant:normal;font-weight:normal;font-stretch:normal;font-size:40px;font-family:Arial;-inkscape-font-specification:'Arial, Normal';font-variant-ligatures:normal;font-variant-caps:normal;font-variant-numeric:normal;font-feature-settings:normal;text-align:start;writing-mode:lr-tb;text-anchor:start" /></flowRegion><flowPara
       id="flowPara80">PUSH</flowPara></flowRoot></svg>
